HIERARCHY
ROOT Hips
{
	OFFSET 0.00000 0.00000 0.00000
	CHANNELS 6 Xposition Yposition Zposition Zrotation Yrotation Xrotation 
	JOINT LHipJoint
	{
		OFFSET 0 0 0
		CHANNELS 3 Zrotation Yrotation Xrotation
		JOINT LeftUpLeg
		{
			OFFSET 1.38691 -1.89057 0.78360
			CHANNELS 3 Zrotation Yrotation Xrotation
			JOINT LeftLeg
			{
				OFFSET 2.59731 -7.13606 0.00000
				CHANNELS 3 Zrotation Yrotation Xrotation
				JOINT LeftFoot
				{
					OFFSET 2.70078 -7.42033 0.00000
					CHANNELS 3 Zrotation Yrotation Xrotation
					JOINT LeftToeBase
					{
						OFFSET 0.16751 -0.46024 2.68862
						CHANNELS 3 Zrotation Yrotation Xrotation
						End Site
						{
							OFFSET 0.00000 -0.00000 1.37057
						}
					}
				}
			}
		}
	}
	JOINT RHipJoint
	{
		OFFSET 0 0 0
		CHANNELS 3 Zrotation Yrotation Xrotation
		JOINT RightUpLeg
		{
			OFFSET -1.38190 -1.89056 0.78359
			CHANNELS 3 Zrotation Yrotation Xrotation
			JOINT RightLeg
			{
				OFFSET -2.57785 -7.08258 0.00000
				CHANNELS 3 Zrotation Yrotation Xrotation
				JOINT RightFoot
				{
					OFFSET -2.77908 -7.63547 0.00000
					CHANNELS 3 Zrotation Yrotation Xrotation
					JOINT RightToeBase
					{
						OFFSET -0.17921 -0.49237 2.62360
						CHANNELS 3 Zrotation Yrotation Xrotation
						End Site
						{
							OFFSET -0.00000 -0.00000 1.34085
						}
					}
				}
			}
		}
	}
	JOINT LowerBack
	{
		OFFSET 0 0 0
		CHANNELS 3 Zrotation Yrotation Xrotation
		JOINT Spine
		{
			OFFSET -0.10749 2.04110 -0.22549
			CHANNELS 3 Zrotation Yrotation Xrotation
			JOINT Spine1
			{
				OFFSET 0.01213 2.05840 0.00691
				CHANNELS 3 Zrotation Yrotation Xrotation
				JOINT Neck
				{
					OFFSET 0 0 0
					CHANNELS 3 Zrotation Yrotation Xrotation
					JOINT Neck1
					{
						OFFSET 0.06585 1.81215 0.35449
						CHANNELS 3 Zrotation Yrotation Xrotation
						JOINT Head
						{
							OFFSET -0.04315 1.87555 -0.27307
							CHANNELS 3 Zrotation Yrotation Xrotation
							End Site
							{
								OFFSET -0.01775 1.89740 -0.13294
							}
						}
					}
				}
				JOINT LeftShoulder
				{
					OFFSET 0 0 0
					CHANNELS 3 Zrotation Yrotation Xrotation
					JOINT LeftArm
					{
						OFFSET 2.98012 1.63606 0.28888
						CHANNELS 3 Zrotation Yrotation Xrotation
						JOINT LeftForeArm
						{
							OFFSET 5.59864 -0.00000 -0.00000
							CHANNELS 3 Zrotation Yrotation Xrotation
							JOINT LeftHand
							{
								OFFSET 3.59542 -0.00000 -0.00000
								CHANNELS 3 Zrotation Yrotation Xrotation
								JOINT LeftFingerBase
								{
									OFFSET 0 0 0
									CHANNELS 3 Zrotation Yrotation Xrotation
									JOINT LeftHandIndex1
									{
										OFFSET 0.57201 -0.00000 -0.00000
										CHANNELS 3 Zrotation Yrotation Xrotation
										End Site
										{
											OFFSET 0.46117 -0.00000 -0.00000
										}
									}
								}
								JOINT LThumb
								{
									OFFSET 0 0 0
									CHANNELS 3 Zrotation Yrotation Xrotation
									End Site
									{
										OFFSET 0.46821 -0.00000 0.46821
									}
								}
							}
						}
					}
				}
				JOINT RightShoulder
				{
					OFFSET 0 0 0
					CHANNELS 3 Zrotation Yrotation Xrotation
					JOINT RightArm
					{
						OFFSET -3.08694 1.53706 0.36335
						CHANNELS 3 Zrotation Yrotation Xrotation
						JOINT RightForeArm
						{
							OFFSET -5.80940 -0.00000 -0.00000
							CHANNELS 3 Zrotation Yrotation Xrotation
							JOINT RightHand
							{
								OFFSET -3.66953 -0.00000 -0.00000
								CHANNELS 3 Zrotation Yrotation Xrotation
								JOINT RightFingerBase
								{
									OFFSET 0 0 0
									CHANNELS 3 Zrotation Yrotation Xrotation
									JOINT RightHandIndex1
									{
										OFFSET -0.57843 -0.00000 -0.00000
										CHANNELS 3 Zrotation Yrotation Xrotation
										End Site
										{
											OFFSET -0.46635 -0.00000 -0.00000
										}
									}
								}
								JOINT RThumb
								{
									OFFSET 0 0 0
									CHANNELS 3 Zrotation Yrotation Xrotation
									End Site
									{
										OFFSET -0.47347 -0.00000 0.47347
									}
								}
							}
						}
					}
				}
			}
		}
	}
}
MOTION
Frames: 11
Frame Time: .0083333
2.7412 18.2387 6.3903 -0.2744 23.6496 0.5088 0.0000 0.0000 0.0000 -15.8797 -21.0276 12.8117 1.6487 8.0924 22.9952 -0.2883 -16.4524 -8.3728 0.0720 -1.7310 -4.7628 0.0000 0.0000 0.0000 13.0551 26.0141 -32.9253 -10.2120 -17.5273 60.1945 -0.8767 15.8447 -18.7565 -0.1957 2.8488 -7.8581 -5.2383 -2.2535 9.0108 -0.5973 -3.6335 -1.4347 2.8244 -1.6043 -6.2836 3.5971 0.3521 -13.2391 -0.2562 -0.2134 37.1654 -0.7625 0.4597 15.1999 0.0000 0.0000 0.0000 -89.0199 -4.4203 36.7494 15.2785 -24.5326 -3.3407 -0.0000 0.0000 -18.9475 23.2601 11.6953 4.9797 -7.1250 0.0000 -0.0000 -3.5423 42.6503 0.2057 0.0000 0.0000 0.0000 84.5323 -3.7229 24.1442 -17.7235 27.8017 -4.4195 0.0000 -0.0000 -7.5629 -41.3613 -3.7670 3.3105 7.1250 -0.0000 -0.0000 -12.1709 -34.7828 -3.1118
2.7485 18.2345 6.4846 -0.2202 23.8059 0.5963 0.0000 0.0000 0.0000 -15.9419 -21.0543 13.1433 1.6272 8.0420 22.8418 -0.2807 -16.3602 -8.3786 0.0689 -1.6936 -4.6596 0.0000 0.0000 0.0000 12.8260 25.9140 -33.1797 -10.2281 -17.5361 60.2479 -0.8709 15.7677 -18.6845 -0.1938 2.8352 -7.8203 -5.3093 -2.2517 9.0195 -0.6111 -3.6413 -1.4541 2.8516 -1.6047 -6.3054 3.5689 0.3467 -13.2421 -0.2882 -0.1971 37.2918 -0.7686 0.4615 15.2625 0.0000 0.0000 0.0000 -89.0258 -4.4333 36.5386 15.1261 -24.3215 -3.2777 -0.0000 0.0000 -18.7090 23.1914 11.7222 4.9745 -7.1250 0.0000 -0.0000 -3.6079 42.6719 0.2076 0.0000 0.0000 0.0000 84.5805 -3.7120 24.2133 -17.7319 27.8125 -4.4234 0.0000 -0.0000 -7.5812 -41.3667 -3.7652 3.3095 7.1250 -0.0000 -0.0000 -12.1751 -34.7807 -3.1136
2.7554 18.2305 6.5766 -0.1663 23.9650 0.6921 0.0000 0.0000 0.0000 -15.9906 -21.0609 13.3918 1.6177 8.0198 22.7741 -0.2730 -16.2643 -8.3819 0.0665 -1.6637 -4.5771 0.0000 0.0000 0.0000 12.5939 25.8185 -33.4349 -10.2411 -17.5432 60.2913 -0.8639 15.6984 -18.6060 -0.1909 2.8137 -7.7605 -5.3675 -2.2491 9.0291 -0.6299 -3.6467 -1.4704 2.8661 -1.6046 -6.3257 3.5455 0.3425 -13.2440 -0.3135 -0.1826 37.4076 -0.7729 0.4639 15.3200 0.0000 -0.0000 0.0000 -89.0122 -4.4440 36.3793 15.0049 -24.1529 -3.2279 -0.0000 0.0000 -18.5243 23.1378 11.7450 4.9712 -7.1250 0.0000 -0.0000 -3.6594 42.6908 0.2088 0.0000 -0.0000 0.0000 84.6338 -3.6999 24.2704 -17.7392 27.8219 -4.4268 0.0000 -0.0000 -7.6118 -41.3925 -3.7581 3.3063 7.1250 -0.0000 -0.0000 -12.1954 -34.7726 -3.1214
2.7621 18.2265 6.6663 -0.1186 24.1228 0.7864 0.0000 0.0000 0.0000 -16.0200 -21.0323 13.5616 1.6200 8.0252 22.7908 -0.2660 -16.1670 -8.3777 0.0647 -1.6416 -4.5161 0.0000 0.0000 0.0000 12.3702 25.7255 -33.6781 -10.2503 -17.5482 60.3217 -0.8552 15.6461 -18.5218 -0.1861 2.7785 -7.6628 -5.4155 -2.2430 9.0379 -0.6465 -3.6458 -1.4763 2.8759 -1.6022 -6.3355 3.5258 0.3384 -13.2448 -0.3396 -0.1687 37.5059 -0.7783 0.4662 15.3687 0.0000 0.0000 0.0000 -88.9895 -4.4596 36.2740 14.9148 -24.0272 -3.1912 -0.0000 0.0000 -18.3899 23.1025 11.7701 4.9732 -7.1250 0.0000 -0.0000 -3.6948 42.7141 0.2087 0.0000 0.0000 0.0000 84.6851 -3.6794 24.3128 -17.7461 27.8308 -4.4300 0.0000 -0.0000 -7.6430 -41.4210 -3.7645 3.3152 7.1250 -0.0000 -0.0000 -12.2199 -34.7823 -3.1250
2.7686 18.2226 6.7539 -0.0735 24.2742 0.8783 0.0000 0.0000 0.0000 -16.0333 -20.9606 13.6610 1.6326 8.0547 22.8804 -0.2599 -16.0685 -8.3613 0.0629 -1.6177 -4.4503 0.0000 0.0000 0.0000 12.1546 25.6390 -33.9021 -10.2553 -17.5509 60.3384 -0.8450 15.6159 -18.4335 -0.1801 2.7331 -7.5367 -5.4558 -2.2333 9.0461 -0.6634 -3.6387 -1.4713 2.8800 -1.5976 -6.3342 3.5034 0.3341 -13.2404 -0.3614 -0.1556 37.5819 -0.7814 0.4679 15.4053 -0.0000 -0.0000 0.0000 -88.9538 -4.4788 36.2193 14.8537 -23.9419 -3.1663 -0.0000 0.0000 -18.3000 23.0687 11.7889 4.9729 -7.1250 0.0000 -0.0000 -3.7279 42.7306 0.2091 -0.0000 -0.0000 0.0000 84.7346 -3.6469 24.3504 -17.7491 27.8346 -4.4314 0.0000 -0.0000 -7.6700 -41.4612 -3.7611 3.3169 7.1250 -0.0000 -0.0000 -12.2526 -34.7797 -3.1345
2.7751 18.2186 6.8390 -0.0449 24.4117 0.9569 0.0000 0.0000 0.0000 -16.0199 -20.8404 13.7038 1.6535 8.1036 23.0293 -0.2546 -15.9665 -8.3316 0.0610 -1.5939 -4.3846 0.0000 0.0000 0.0000 11.9653 25.5621 -34.0968 -10.2555 -17.5510 60.3389 -0.8333 15.6099 -18.3426 -0.1730 2.6794 -7.3874 -5.4692 -2.2196 9.0620 -0.6802 -3.6234 -1.4588 2.8683 -1.5901 -6.3316 3.4913 0.3316 -13.2228 -0.3875 -0.1406 37.6364 -0.7878 0.4708 15.4283 0.0000 -0.0000 0.0000 -88.9015 -4.5013 36.2149 14.8171 -23.8907 -3.1515 -0.0000 0.0000 -18.2521 23.0194 11.8302 4.9782 -7.1250 0.0000 -0.0000 -3.7784 42.7699 0.2082 0.0000 -0.0000 0.0000 84.7837 -3.6092 24.3919 -17.7484 27.8337 -4.4311 0.0000 -0.0000 -7.6936 -41.5049 -3.7596 3.3206 7.1250 -0.0000 -0.0000 -12.2885 -34.7797 -3.1440
2.7818 18.2145 6.9220 -0.0247 24.5322 1.0208 0.0000 0.0000 0.0000 -15.9923 -20.6705 13.7092 1.6806 8.1665 23.2209 -0.2505 -15.8624 -8.2859 0.0588 -1.5647 -4.3040 0.0000 0.0000 0.0000 11.7975 25.4864 -34.2578 -10.2513 -17.5487 60.3249 -0.8184 15.6368 -18.2397 -0.1648 2.6157 -7.2107 -5.4700 -2.2016 9.0840 -0.6950 -3.6008 -1.4356 2.8506 -1.5799 -6.3224 3.4918 0.3324 -13.1903 -0.4225 -0.1205 37.6681 -0.7993 0.4760 15.4365 -0.0000 0.0000 0.0000 -88.8411 -4.5303 36.2440 14.7993 -23.8658 -3.1443 -0.0000 0.0000 -18.2273 22.9668 11.8715 4.9825 -7.1250 0.0000 -0.0000 -3.8318 42.8086 0.2075 -0.0000 0.0000 0.0000 84.8249 -3.5618 24.4476 -17.7435 27.8275 -4.4288 0.0000 -0.0000 -7.7113 -41.5515 -3.7672 3.3328 7.1250 -0.0000 -0.0000 -12.3281 -34.7917 -3.1509
2.7891 18.2103 7.0028 -0.0158 24.6281 1.0702 0.0000 0.0000 0.0000 -15.9514 -20.4544 13.6871 1.7119 8.2384 23.4405 -0.2470 -15.7569 -8.2324 0.0562 -1.5300 -4.2085 0.0000 0.0000 0.0000 11.6553 25.4111 -34.3874 -10.2432 -17.5443 60.2981 -0.8000 15.6978 -18.1220 -0.1564 2.5482 -7.0233 -5.4553 -2.1770 9.1091 -0.7063 -3.5672 -1.4032 2.8265 -1.5652 -6.3066 3.4998 0.3358 -13.1475 -0.4652 -0.0955 37.6850 -0.8145 0.4831 15.4350 -0.0000 -0.0000 0.0000 -88.7776 -4.5690 36.3008 14.7949 -23.8596 -3.1425 -0.0000 0.0000 -18.2254 22.9140 11.9060 4.9840 -7.1250 0.0000 -0.0000 -3.8844 42.8401 0.2074 -0.0000 -0.0000 0.0000 84.8547 -3.5044 24.5204 -17.7328 27.8137 -4.4239 0.0000 -0.0000 -7.7236 -41.5915 -3.7791 3.3480 7.1250 -0.0000 -0.0000 -12.3630 -34.8092 -3.1547
2.7971 18.2060 7.0812 -0.0162 24.7021 1.1049 0.0000 0.0000 0.0000 -15.9040 -20.2021 13.6513 1.7456 8.3147 23.6742 -0.2441 -15.6535 -8.1732 0.0523 -1.4755 -4.0581 0.0000 0.0000 0.0000 11.5374 25.3303 -34.4865 -10.2323 -17.5384 60.2620 -0.7782 15.7914 -17.9919 -0.1477 2.4762 -6.8237 -5.4296 -2.1492 9.1405 -0.7095 -3.5278 -1.3614 2.8041 -1.5482 -6.2852 3.5062 0.3431 -13.1006 -0.5156 -0.0609 37.6931 -0.8311 0.4926 15.4284 0.0000 0.0000 0.0000 -88.7225 -4.6225 36.3671 14.7982 -23.8642 -3.1438 -0.0000 0.0000 -18.2315 22.8625 11.9374 4.9844 -7.1250 0.0000 -0.0000 -3.9356 42.8682 0.2074 0.0000 0.0000 0.0000 84.8606 -3.4307 24.6225 -17.7149 27.7905 -4.4155 0.0000 -0.0000 -7.7305 -41.6205 -3.7931 3.3637 7.1250 -0.0000 -0.0000 -12.3891 -34.8287 -3.1557
2.8058 18.2015 7.1575 -0.0258 24.7513 1.1269 0.0000 0.0000 0.0000 -15.8523 -19.9123 13.6094 1.7803 8.3926 23.9130 -0.2413 -15.5541 -8.1169 0.0473 -1.4036 -3.8600 0.0000 0.0000 0.0000 11.4466 25.2414 -34.5590 -10.2202 -17.5318 60.2217 -0.7531 15.9145 -17.8484 -0.1395 2.4070 -6.6318 -5.3902 -2.1160 9.1779 -0.7092 -3.4794 -1.3145 2.7765 -1.5273 -6.2627 3.5126 0.3518 -13.0511 -0.5673 -0.0237 37.7030 -0.8478 0.5032 15.4221 -0.0000 0.0000 0.0000 -88.6684 -4.6835 36.4425 14.8066 -23.8760 -3.1472 -0.0000 0.0000 -18.2466 22.7988 11.9535 4.9756 -7.1250 0.0000 -0.0000 -3.9953 42.8787 0.2095 -0.0000 0.0000 0.0000 84.8510 -3.3457 24.7518 -17.6862 27.7536 -4.4022 0.0000 -0.0000 -7.7307 -41.6408 -3.8113 3.3822 7.1250 -0.0000 -0.0000 -12.4086 -34.8534 -3.1532
2.8153 18.1971 7.2317 -0.0369 24.7790 1.1430 0.0000 0.0000 0.0000 -15.8068 -19.5937 13.5648 1.8152 8.4701 24.1512 -0.2380 -15.4634 -8.0750 0.0408 -1.3036 -3.5845 0.0000 0.0000 0.0000 11.3739 25.1395 -34.6121 -10.2083 -17.5253 60.1823 -0.7247 16.0657 -17.6910 -0.1314 2.3364 -6.4362 -5.3419 -2.0796 9.2211 -0.7065 -3.4259 -1.2655 2.7460 -1.5042 -6.2422 3.5148 0.3634 -13.0080 -0.6177 0.0183 37.7258 -0.8625 0.5156 15.4240 -0.0000 -0.0000 0.0000 -88.6213 -4.7462 36.5134 14.8200 -23.8948 -3.1527 -0.0000 0.0000 -18.2624 22.7348 11.9706 4.9671 -7.1250 0.0000 -0.0000 -4.0556 42.8901 0.2115 -0.0000 -0.0000 0.0000 84.8253 -3.2507 24.9047 -17.6473 27.7031 -4.3840 0.0000 -0.0000 -7.7173 -41.6534 -3.8254 3.3962 7.1250 -0.0000 -0.0000 -12.4211 -34.8723 -3.1507
